<svg viewBox="0 0 23 25" fill="none" xmlns="http://www.w3.org/2000/svg">
    <title>Shopping bag icon</title>
<path fill-rule="evenodd" clip-rule="evenodd" d="M7.52241 8H14.4777C14.5446 7.71269 14.5901 7.3221 14.5901 6.79245C14.5901 5.08941 14.1219 3.59223 13.4172 2.54937C12.7085 1.50071 11.8355 1 11.0001 1C10.1646 1 9.2916 1.50071 8.58296 2.54937C7.87823 3.59223 7.41 5.08941 7.41 6.79245C7.41 7.3221 7.45556 7.71269 7.52241 8ZM6.50224 8H5.7934C4.47341 8 3.30851 8.86278 2.9237 10.1254L0.180847 19.1254C-0.40659 21.053 1.03548 23 3.05054 23H18.9495C20.9646 23 22.4066 21.053 21.8192 19.1254L19.0763 10.1254C18.6915 8.86278 17.5266 8 16.2067 8H15.4979C15.5584 7.65814 15.5901 7.25878 15.5901 6.79245C15.5901 3.04108 13.5351 0 11.0001 0C8.46504 0 6.41 3.04108 6.41 6.79245C6.41 7.25878 6.44176 7.65814 6.50224 8Z" fill="black"/>
</svg>